<mxfile host="app.diagrams.net" modified="2023-10-16T13:48:34.912Z" agent="Mozilla/5.0 (Windows NT 10.0; Win64; x64) AppleWebKit/537.36 (KHTML, like Gecko) Chrome/117.0.0.0 Safari/537.36" etag="pmJ7pAnEtTdSq0pyAOUS" version="22.0.4" type="github">
  <diagram name="Page-1" id="G2JT-5MZ6il7s0chR8mo">
    <mxGraphModel dx="1018" dy="705" grid="1" gridSize="10" guides="1" tooltips="1" connect="1" arrows="1" fold="1" page="1" pageScale="1" pageWidth="850" pageHeight="1100" math="0" shadow="0">
      <root>
        <mxCell id="0" />
        <mxCell id="1" parent="0" />
        <mxCell id="zkryZQATMW9P87HwknZ--1" value="&lt;b&gt;SAP CCV2 (2211)&lt;br&gt;Environments: D1, S1, P1&lt;/b&gt;" style="ellipse;whiteSpace=wrap;html=1;aspect=fixed;" parent="1" vertex="1">
          <mxGeometry x="290" y="230" width="200" height="200" as="geometry" />
        </mxCell>
        <mxCell id="zkryZQATMW9P87HwknZ--2" value="&lt;b&gt;CCAVENUE - Payment Gateway&lt;br&gt;&lt;ul&gt;&lt;li style=&quot;text-align: left;&quot;&gt;&lt;b style=&quot;background-color: initial;&quot;&gt;Card payment&lt;/b&gt;&lt;/li&gt;&lt;li style=&quot;text-align: left;&quot;&gt;&lt;b style=&quot;background-color: initial;&quot;&gt;Apple Pay&lt;/b&gt;&lt;/li&gt;&lt;/ul&gt;&lt;/b&gt;" style="rounded=1;whiteSpace=wrap;html=1;" parent="1" vertex="1">
          <mxGeometry x="50" y="200" width="160" height="100" as="geometry" />
        </mxCell>
        <mxCell id="zkryZQATMW9P87HwknZ--3" value="" style="rounded=1;whiteSpace=wrap;html=1;" parent="1" vertex="1">
          <mxGeometry x="370" y="440" width="40" height="70" as="geometry" />
        </mxCell>
        <mxCell id="zkryZQATMW9P87HwknZ--4" value="&lt;b&gt;TWILIO OTP Provider&lt;br&gt;&lt;br&gt;SMS and whatsApp&lt;/b&gt;" style="rounded=1;whiteSpace=wrap;html=1;" parent="1" vertex="1">
          <mxGeometry x="50" y="330" width="160" height="90" as="geometry" />
        </mxCell>
        <mxCell id="zkryZQATMW9P87HwknZ--5" value="&lt;b&gt;Sage X3 ERP - Order Fulfillment&lt;/b&gt;" style="shape=cylinder3;whiteSpace=wrap;html=1;boundedLbl=1;backgroundOutline=1;size=15;" parent="1" vertex="1">
          <mxGeometry x="590" y="265" width="120" height="130" as="geometry" />
        </mxCell>
        <mxCell id="zkryZQATMW9P87HwknZ--6" value="" style="rounded=1;whiteSpace=wrap;html=1;" parent="1" vertex="1">
          <mxGeometry x="430" y="440" width="40" height="70" as="geometry" />
        </mxCell>
        <mxCell id="zkryZQATMW9P87HwknZ--8" value="" style="verticalLabelPosition=bottom;html=1;verticalAlign=top;align=center;strokeColor=none;fillColor=#00BEF2;shape=mxgraph.azure.computer;pointerEvents=1;" parent="1" vertex="1">
          <mxGeometry x="270" y="440" width="80" height="70" as="geometry" />
        </mxCell>
        <mxCell id="zkryZQATMW9P87HwknZ--9" value="" style="dashed=0;outlineConnect=0;html=1;align=center;labelPosition=center;verticalLabelPosition=bottom;verticalAlign=top;shape=mxgraph.webicons.apple;fillColor=#807E7E;gradientColor=#1B1C1C" parent="1" vertex="1">
          <mxGeometry x="370" y="455" width="40" height="40" as="geometry" />
        </mxCell>
        <mxCell id="zkryZQATMW9P87HwknZ--11" value="" style="dashed=0;outlineConnect=0;html=1;align=center;labelPosition=center;verticalLabelPosition=bottom;verticalAlign=top;shape=mxgraph.weblogos.android;fillColor=#A4CA39;strokeColor=none" parent="1" vertex="1">
          <mxGeometry x="430" y="455" width="40" height="40" as="geometry" />
        </mxCell>
        <mxCell id="zkryZQATMW9P87HwknZ--16" value="" style="endArrow=classic;html=1;rounded=0;" parent="1" target="zkryZQATMW9P87HwknZ--4" edge="1">
          <mxGeometry width="50" height="50" relative="1" as="geometry">
            <mxPoint x="300" y="370" as="sourcePoint" />
            <mxPoint x="450" y="340" as="targetPoint" />
          </mxGeometry>
        </mxCell>
        <mxCell id="zkryZQATMW9P87HwknZ--19" value="" style="endArrow=classic;html=1;rounded=0;entryX=1;entryY=0.5;entryDx=0;entryDy=0;exitX=0.107;exitY=0.185;exitDx=0;exitDy=0;exitPerimeter=0;" parent="1" edge="1" target="zkryZQATMW9P87HwknZ--2" source="zkryZQATMW9P87HwknZ--1">
          <mxGeometry width="50" height="50" relative="1" as="geometry">
            <mxPoint x="300" y="260" as="sourcePoint" />
            <mxPoint x="260" y="260" as="targetPoint" />
          </mxGeometry>
        </mxCell>
        <mxCell id="SkU6EctSQZptetk52L83-2" value="&lt;font style=&quot;font-size: 12px;&quot;&gt;REST/JSON&lt;/font&gt;" style="edgeLabel;html=1;align=center;verticalAlign=middle;resizable=0;points=[];rotation=15;" vertex="1" connectable="0" parent="zkryZQATMW9P87HwknZ--19">
          <mxGeometry x="-0.3333" y="-5" relative="1" as="geometry">
            <mxPoint x="-9" y="-6" as="offset" />
          </mxGeometry>
        </mxCell>
        <mxCell id="zkryZQATMW9P87HwknZ--22" value="" style="endArrow=classic;html=1;rounded=0;exitX=1;exitY=0.5;exitDx=0;exitDy=0;" parent="1" source="zkryZQATMW9P87HwknZ--1" target="zkryZQATMW9P87HwknZ--5" edge="1">
          <mxGeometry width="50" height="50" relative="1" as="geometry">
            <mxPoint x="320" y="309.5" as="sourcePoint" />
            <mxPoint x="280" y="309.5" as="targetPoint" />
          </mxGeometry>
        </mxCell>
        <mxCell id="zkryZQATMW9P87HwknZ--24" value="" style="html=1;verticalLabelPosition=bottom;align=center;labelBackgroundColor=#ffffff;verticalAlign=top;strokeWidth=2;strokeColor=#0080F0;shadow=0;dashed=0;shape=mxgraph.ios7.icons.shopping_cart;" parent="1" vertex="1">
          <mxGeometry x="180" y="450" width="30" height="25.5" as="geometry" />
        </mxCell>
        <mxCell id="zkryZQATMW9P87HwknZ--25" value="" style="shape=actor;whiteSpace=wrap;html=1;" parent="1" vertex="1">
          <mxGeometry x="130" y="440" width="40" height="60" as="geometry" />
        </mxCell>
        <mxCell id="zkryZQATMW9P87HwknZ--26" value="" style="endArrow=classic;html=1;rounded=0;exitX=1.178;exitY=0.667;exitDx=0;exitDy=0;exitPerimeter=0;" parent="1" source="zkryZQATMW9P87HwknZ--24" edge="1">
          <mxGeometry width="50" height="50" relative="1" as="geometry">
            <mxPoint x="220" y="460" as="sourcePoint" />
            <mxPoint x="250" y="467" as="targetPoint" />
          </mxGeometry>
        </mxCell>
        <mxCell id="SkU6EctSQZptetk52L83-3" value="&lt;font style=&quot;font-size: 12px;&quot;&gt;REST/JSON&lt;/font&gt;" style="edgeLabel;html=1;align=center;verticalAlign=middle;resizable=0;points=[];" vertex="1" connectable="0" parent="1">
          <mxGeometry x="240.00471079103937" y="349.9970829739719" as="geometry">
            <mxPoint x="14" y="9" as="offset" />
          </mxGeometry>
        </mxCell>
        <mxCell id="SkU6EctSQZptetk52L83-4" value="&lt;font style=&quot;font-size: 12px;&quot;&gt;SOAP, XML-RPC&lt;/font&gt;" style="edgeLabel;html=1;align=center;verticalAlign=middle;resizable=0;points=[];" vertex="1" connectable="0" parent="1">
          <mxGeometry x="540.0047107910393" y="319.9970829739719" as="geometry">
            <mxPoint y="-9" as="offset" />
          </mxGeometry>
        </mxCell>
      </root>
    </mxGraphModel>
  </diagram>
</mxfile>
